<svg width="21" height="20" viewBox="0 0 21 20" fill="none" xmlns="http://www.w3.org/2000/svg">
<g id="Group 1">
<path id="Vector" d="M5.03402 19.3047C4.45782 19.3029 3.89786 19.1137 3.43875 18.7655C2.97964 18.4173 2.64632 17.9292 2.48917 17.3748L0.0680789 8.83844C0.0211226 8.68315 -0.00179884 8.52159 0.000110115 8.35938C0.00589363 7.91054 0.187977 7.48198 0.507041 7.16625C0.826106 6.85052 1.25655 6.67295 1.70542 6.67188H19.2957C19.7449 6.67332 20.1754 6.85143 20.4944 7.16772C20.8133 7.484 20.9949 7.91306 21.0001 8.36219C21.0001 8.39172 21.0001 8.42078 20.9959 8.44984L20.9678 8.70766C20.9631 8.74952 20.955 8.79091 20.9434 8.83141L18.52 17.3767C18.3578 17.9314 18.0208 18.4188 17.559 18.7662C17.0973 19.1136 16.5356 19.3025 15.9578 19.3047H5.03589H5.03402ZM1.70542 8.17188C1.65133 8.17199 1.59946 8.19341 1.56104 8.23148C1.52261 8.26955 1.50073 8.32122 1.50011 8.37531C1.49978 8.38514 1.50105 8.39495 1.50386 8.40438C1.50386 8.41047 1.50761 8.41609 1.50902 8.42172L3.93245 16.967C4.00044 17.2077 4.14502 17.4197 4.34431 17.5709C4.54359 17.722 4.78671 17.8041 5.03683 17.8047H15.9587C16.2112 17.8039 16.4568 17.7216 16.6587 17.57C16.8607 17.4184 17.0083 17.2056 17.0795 16.9633L19.4846 8.48266L19.4996 8.34766C19.4924 8.29887 19.4678 8.25431 19.4305 8.22206C19.3932 8.18981 19.3455 8.17201 19.2962 8.17188H1.70542ZM10.7687 15.6752H10.7645C10.0426 15.6734 9.35091 15.3848 8.84171 14.8731C8.3325 14.3613 8.04745 13.6683 8.04925 12.9463C8.05105 12.2244 8.33957 11.5328 8.85132 11.0236C9.36308 10.5143 10.0562 10.2293 10.7781 10.2311H10.7917C11.5136 10.2341 12.2047 10.5238 12.7131 11.0365C13.2214 11.5491 13.5053 12.2427 13.5022 12.9646C13.4992 13.6865 13.2095 14.3777 12.6968 14.886C12.1842 15.3943 11.4906 15.6782 10.7687 15.6752ZM10.7781 11.7311C10.4551 11.7319 10.1457 11.8609 9.91773 12.0897C9.68978 12.3185 9.56197 12.6284 9.56238 12.9514C9.56278 13.2743 9.69136 13.5839 9.91988 13.8122C10.1484 14.0404 10.4582 14.1686 10.7811 14.1686C11.1041 14.1686 11.4139 14.0404 11.6424 13.8122C11.8709 13.5839 11.9995 13.2743 11.9999 12.9514C12.0003 12.6284 11.8725 12.3185 11.6445 12.0897C11.4166 11.8609 11.1071 11.7319 10.7842 11.7311H10.7781Z" fill="#21272A"/>
<path id="Vector_2" d="M14.4001 7.87188L10.5001 2.67203L6.60015 7.87188L5.40015 6.97187L9.90015 0.971875C9.97001 0.878728 10.0606 0.803125 10.1647 0.751055C10.2689 0.698984 10.3837 0.671875 10.5001 0.671875C10.6166 0.671875 10.7314 0.698984 10.8356 0.751055C10.9397 0.803125 11.0303 0.878728 11.1001 0.971875L15.6001 6.97187L14.4001 7.87188Z" fill="#21272A"/>
</g>
</svg>
